<?xml version="1.0" encoding="UTF-8"?>
<svg id="Calque_1" data-name="Calque 1" xmlns="http://www.w3.org/2000/svg" viewBox="0 0 338.07 357.94">
  <defs>
    <style>
      .cls-1 {
        fill: #009b44;
      }

      .cls-1, .cls-2 {
        stroke-width: 0px;
      }

      .cls-2 {
        fill: #706f6f;
      }
    </style>
  </defs>
  <g>
    <path class="cls-1" d="m38.72,282.14c5.89,0,10.64,4.75,10.64,10.64s-4.75,10.64-10.64,10.64-10.64-4.75-10.64-10.64,4.75-10.64,10.64-10.64Z"/>
    <path class="cls-1" d="m298.62,282.14c5.89,0,10.64,4.75,10.64,10.64s-4.75,10.64-10.64,10.64-10.64-4.75-10.64-10.64,4.75-10.64,10.64-10.64Z"/>
    <path class="cls-1" d="m167.79,0C98.59,0,42.49,56.1,42.49,125.3c0,38.36,17.25,72.67,44.4,95.66,38.21-19.76,53.97-55.62,56.26-60.26,1.11-2.23,1.96-5.05,2.62-7.77-2.43,2.86-5.11,6.36-7.54,10.29-6.72,10.79-22.33,12.51-34.17,12-11.83-.5-16.01-2.23-18.2-3.36-2.2-1.12-10.99-5.38-14.17-6.21-3.17-.82-5.35-4.05-3-8.38,2.34-4.33,5.77-12.85,9.42-15.69,3.65-2.83,7.48-8.46,7.75-10.54.26-2.08,14.58-7.79,17.13-8.69,2.54-.89,11.32-10.77,25,1.6,0,0,5.56.3,11.14,2.57-3.97-6.18-11.35-8.24-15.67-8.35-5.2-.12-12.5-11.1-16.7-15.74-4.19-4.64-1.48-12.04-4.42-17.6-2.95-5.57-3.34-14.13-2.4-15.39.93-1.26,2.85-9.68,3.84-14.6,1.01-4.91,3.84-6.68,3.84-6.68,1.05-1.45,11.75,1.24,12.46,2.22.7.98,1.21-2.53,16.04,5.94,5.06,2.9,9.04,6.72,12.15,10.73.28-2.54.63-5.01,1.07-7.22-.33-.03-.72-.22-1.12-.87-.9-1.5-2.37-3.75-1.1-6.37,1.27-2.63,2.11-7.51,2.35-9.34.25-1.83,3.5-8.22,5.78-5.98.56.56.69,1.7.57,3.11.38-.75.83-1.22,1.38-1.2,2.45.09,5.93,4.42,3.4,11.92-2.51,7.52-5.67,12.91-7.59,8.66-.11-.24-.2-.49-.28-.75-1.03,3.9-1.7,7.69-2.07,11.37,4.38,6.69,6.54,13.34,7.36,16.62.81,3.24,1.62,8.67,2.17,12.86,2.84-7.55,6.67-14.89,8.17-17.25.75-4.07,1.64-8.04,2.48-10.72-.98.15-2.31.18-2.75-.67-.71-1.37-7.12-3.99,3.43-17.51,0,0,5.19-5.52,6.2-.04,1.9-4.49,4.84-.45,5.15,1.31.33,1.78,1.46,5.81.41,10.82-1.07,5-6.29,7.63-8.72,6.88-.44-.13-.72-.33-.94-.54-.82,2.21-2.01,5.59-2.99,9.37,1.76-.48,4.41-1.57,5.59-3.43,1.73-2.74,8.24-10.09,23.87-9.95,15.63.13,15.79,14.89,15.68,18.39-.1,3.5-4.36,12.29-3.56,15.18.36,1.25.23,3.11-.53,6.06,4.18-3.38,10.28-8.45,13.3-11.41-.29.12-.58.21-.87.24-3.11.38-.56-6.3,1.87-9.12,2.42-2.81,9.73-8.79,13.8-6.94,0,0,.33,1.26-.31,3,2.31-1.09,4.02-.68,4.48.04.84,1.37-3.73,9.58-4.53,11.34-.8,1.76-9.41,12.38-11.81,8.34-1.02-1.69-.33-4.17.79-6.49-1.77,1.57-4.22,4.28-5.61,5.93-1.34,1.59-4.63,3.86-12.78,10.41-1.19,3.41-2.87,7.68-5.15,13.13-.02.03-.04.06-.05.08,4.8-1.16,9.12-1.97,11.18-1.9,4.58.16,20.47.07,22.52-.33.43-.08.8-.07,1.14,0,.02-.02.04-.05.07-.07-.45-.15-.88-.31-1.26-.53-1.96-1.13-4.69-2.26-4.69-2.26,0,0,7.31-6.06,13.97-2.98,6.67,3.09,8.54,5.3,7.53,6.71,0,0-5.01.69-8.46.16-1.41-.23-2.74-.35-3.96-.5.05.12.12.21.15.33.07.39-.01.77-.17,1.11.61.17,1.22.37,1.78.62,2.73,1.2,9.65.5,10.13,3.14,0,0-7.71,10.1-18.46,1.92-3.37-2.56-4.44-4.16-4.32-5.13-2.84.14-6.6.14-11.5-.19-5.01-.35-11.04.77-17.1,2.53-1.83,2.71-4.46,4.79-7.45,6.41,9.73-.62,19.69-.64,25.99,1.04,15.81,4.22,22.77,5.1,21.96,9.83,0,0,8.72,4.27,11.17,6.87,2.45,2.6,7.72,14.13,8.8,15.55,1.09,1.43,3.01,4.85,4.05,5.51,1.05.67-7.65,13.4-19.09,12.75-11.45-.65-14.85,1.08-21.25,1.42-6.41.34-20.04-1.17-34.58-18.26-9.52-11.17-16.51-17.02-22.01-20.4,2.29,2.3,4.55,5.22,5.46,8.45,2.14,7.55,13.75,13.92,19.2,25.95,5.44,12.04,2.03,32.21-7.63,39.94-9.66,7.74-35.65-15.22-38.62-25.55-2.08-7.29-5.54-12.79-7.28-16.28-7.03,10.31-15.05,18.23-15.05,18.23-12.39,11.27-23.77,19.49-33.99,25.51,20.85,15.5,46.7,24.69,74.69,24.69,69.2,0,125.3-56.1,125.3-125.3S236.99,0,167.79,0Z"/>
    <path class="cls-1" d="m196.78,352.76c-1.62,0-3.61-.48-5.21-.84v-17.22h5.66c3.08,0,5.6,1.29,5.6,4.7,0,1.29-.98,3.05-2.3,3.39,1.9.31,3.25,2.18,3.25,4.06,0,3.98-3.39,5.91-7,5.91Zm.45-14.56h-1.48v3.53h.92c1.18,0,2.04-.39,2.04-1.93,0-1.06-.56-1.6-1.48-1.6Zm-.56,6.69h-.92v4.34c.25.06.73.2.98.2,1.68,0,2.88-.78,2.88-2.58s-1.57-1.96-2.94-1.96Z"/>
    <path class="cls-1" d="m205.85,352.34v-17.64h4.14v17.64h-4.14Z"/>
    <path class="cls-1" d="m219.38,352.76c-5.12,0-6.83-5.35-6.83-9.24s1.71-9.24,6.83-9.24,6.83,5.35,6.83,9.24-1.71,9.24-6.83,9.24Zm0-14.9c-2.49,0-2.66,3.25-2.66,5.66s.17,5.66,2.66,5.66,2.66-3.28,2.66-5.66-.17-5.66-2.66-5.66Z"/>
  </g>
  <g>
    <path class="cls-2" d="m90.08,283.71c-2.16-1.13-5.18-1.89-7.56-1.89-4.7,0-6.48,7.61-6.48,11.29,0,4.27,1.08,10.8,6.59,10.8.81,0,1.73.05,2.54-.22v-10.42h7.72v15.5c-2.97,1.35-7.18,1.94-10.37,1.94-10.21,0-14.53-8.75-14.53-17.82s4.86-17.77,14.53-17.77c3.4,0,7.94,1.13,10.64,3.29l-3.08,5.29Z"/>
    <path class="cls-2" d="m113.67,309.9l-1.73-7.02h-6.8l-1.73,7.02h-8.37l9.5-34.02h7.94l9.56,34.02h-8.37Zm-5.13-23.71l-2.54,10.37h5.08l-2.54-10.37Z"/>
    <path class="cls-2" d="m135.16,310.71c-3.13,0-6.97-.92-10.04-1.62v-33.21h10.91c5.94,0,10.8,2.48,10.8,9.07,0,2.48-1.89,5.89-4.43,6.53,3.67.59,6.26,4.21,6.26,7.83,0,7.67-6.53,11.39-13.5,11.39Zm.86-28.08h-2.86v6.8h1.78c2.27,0,3.94-.76,3.94-3.73,0-2.05-1.08-3.08-2.86-3.08Zm-1.08,12.91h-1.78v8.37c.49.11,1.4.38,1.89.38,3.24,0,5.56-1.51,5.56-4.97s-3.02-3.78-5.67-3.78Z"/>
    <path class="cls-2" d="m164.16,310.71c-9.88,0-13.18-10.31-13.18-17.82s3.29-17.82,13.18-17.82,13.18,10.31,13.18,17.82-3.29,17.82-13.18,17.82Zm0-28.73c-4.81,0-5.13,6.26-5.13,10.91s.32,10.91,5.13,10.91,5.13-6.32,5.13-10.91-.32-10.91-5.13-10.91Z"/>
    <path class="cls-2" d="m198.61,309.9l-8.69-11.88v11.88h-8.05v-34.02h8.91c7.45,0,14.04,2.7,14.04,11.18,0,4.32-2.54,8.42-6.59,9.99l7.13,9.23v3.62h-6.75Zm-6.59-27.27h-2.11v9.29c.54.16,1.46.38,2,.38,3.08,0,4.75-2.38,4.75-5.29,0-3.19-1.51-4.37-4.64-4.37Z"/>
    <path class="cls-2" d="m243.49,309.9v7.45h-7.45v-7.45h-12.15l-.32-5.29c3.4-7.51,7.83-14.63,12.91-21.17h7.13v19.76h2.05v6.7h-2.16Zm-7.56-15.88c-.76.86-4.48,7.61-5.08,9.18h5.08v-9.18Z"/>
    <path class="cls-2" d="m251.05,318.81h-2.16v-5.4c5.02,0,12.58-2.11,12.58-8.32,0-1.94-1.89-2.81-3.62-2.81-3.02,0-5.4.43-8.1,1.19l2.38-20.03h15.71v6.64h-9.34l-.54,6.32c.76-.16,1.51-.27,2.32-.27,4.91,0,9.02,3.02,9.02,8.21,0,9.77-9.61,14.58-18.25,14.47Z"/>
    <path class="cls-2" d="m2.13,350.5h6.08v1.85H0v-17.64h2.13v15.79Z"/>
    <path class="cls-2" d="m12.46,344.81v.53c0,1.96.78,5.74,3.33,5.74,1.06,0,3-1.12,3.89-1.74l.67,1.34c-1.2,1.04-3.19,2.07-4.79,2.07-4,0-5.29-4.37-5.29-7.64s2.16-6.92,5.82-6.92c2.77,0,4.59,2.6,4.76,5.18.03.48.03.95.06,1.43h-8.46Zm3.44-4.93c-1.76,0-2.86,1.79-3.19,3.33h5.96c0-1.57-1.01-3.33-2.77-3.33Z"/>
    <path class="cls-2" d="m28.14,352.76c-1.4,0-2.97-.7-4-1.62l.78-1.51c.84.64,2.27,1.48,3.33,1.48,1.32,0,2.69-.59,2.69-2.1,0-1.12-.84-1.71-1.74-2.16l-2.91-1.46c-1.48-.76-2.44-1.82-2.44-3.56,0-2.58,2.41-3.64,4.65-3.64,1.57,0,3.28.62,4.23,1.9l-1.12,1.12c-.78-.78-2.04-1.37-3.16-1.37s-2.49.56-2.49,1.88c0,1.09,1.09,1.62,1.93,2.04l2.58,1.26c1.6.78,2.52,1.96,2.52,3.75,0,2.77-2.38,3.98-4.84,3.98Z"/>
    <path class="cls-2" d="m55.24,352.34l-1.88-5.68h-5.26l-1.88,5.68h-2.3l5.6-17.64h2.41l5.6,17.64h-2.3Zm-6.61-7.53h4.2l-2.1-7.78-2.1,7.78Z"/>
    <path class="cls-2" d="m68.43,340.3c.42.73.64,1.82.64,2.63,0,2.07-1.48,3.72-3.42,4.31-.81.25-3.14.84-3.14,1.96,0,.92,2.66.98,3.47.98h.95c1.74,0,3.25,1.04,3.25,2.86,0,3.22-3.28,4.9-6.1,4.9-2.1,0-4.65-.73-4.65-3.28,0-1.82,1.34-2.58,2.74-3.33-.98-.11-1.85-.81-1.85-1.76,0-1.43,1.43-2.02,2.52-2.46-1.79-.64-2.97-2.35-2.97-4.26,0-2.77,1.96-4.65,4.7-4.65.76,0,1.4.08,2.04.42h3.78v1.68h-1.99Zm-3,11.37h-1.65c-1.01.56-2.27,1.29-2.27,2.58,0,1.57,1.32,2.16,2.69,2.16,1.71,0,3.92-1.18,3.92-3.11,0-1.48-1.54-1.62-2.69-1.62Zm-.95-12.01c-1.62,0-2.55,1.65-2.55,3.11s.92,3.11,2.55,3.11,2.55-1.65,2.55-3.11-.92-3.11-2.55-3.11Z"/>
    <path class="cls-2" d="m79.55,340.53s-.45-.36-1.26-.36c-.95,0-1.76.9-2.35,1.48v10.7h-2.13v-13.72h2.16v1.09c.59-.59,1.26-1.51,2.97-1.51.76,0,1.37.42,1.37.42l-.76,1.9Z"/>
    <path class="cls-2" d="m84.17,333.3c.81,0,1.54.59,1.54,1.43s-.78,1.48-1.6,1.48-1.54-.59-1.54-1.43.78-1.48,1.6-1.48Zm1.09,19.04h-2.07v-13.72h2.07v13.72Z"/>
    <path class="cls-2" d="m94.89,352.76c-3.86,0-5.52-3.78-5.52-7.14s1.62-7.42,5.49-7.42c1.23,0,2.69.53,3.58,1.4l-.95,1.26c-.67-.56-1.71-.98-2.6-.98-2.52,0-3.39,3.44-3.39,5.46,0,2.16.84,5.74,3.56,5.74.92,0,2.3-.73,3.08-1.23l.7,1.32c-1.01.87-2.6,1.6-3.95,1.6Z"/>
    <path class="cls-2" d="m112.11,352.76c-.98,0-1.82-.59-1.96-1.6-1.15.98-2.94,1.6-4.42,1.6-2.6,0-3.5-1.26-3.5-3.72v-10.42h2.13v10.42c0,1.2.17,1.99,1.57,1.99,1.23,0,3.25-.76,4.17-1.6v-10.81h2.13v11.62c0,.45,0,1.06.59,1.12l-.7,1.4Z"/>
    <path class="cls-2" d="m119.16,346.83c0,1.93.28,3.7.84,5.52h-2.21c-.56-1.51-.7-3.92-.7-5.52v-13.92h2.07v13.92Z"/>
    <path class="cls-2" d="m127.03,352.76c-1.32,0-2.46-.78-2.46-3.14v-9.38l-1.85-.25v-1.37h1.96v-2.44h1.96v2.44h2.77v1.62h-2.72v9.27c0,1.2.45,1.54,1.09,1.54.7,0,1.62-.39,1.62-.39l.48,1.32s-1.23.78-2.86.78Z"/>
    <path class="cls-2" d="m134.59,344.81v.53c0,1.96.78,5.74,3.33,5.74,1.06,0,3-1.12,3.89-1.74l.67,1.34c-1.2,1.04-3.19,2.07-4.79,2.07-4,0-5.29-4.37-5.29-7.64s2.16-6.92,5.82-6.92c2.77,0,4.59,2.6,4.76,5.18.03.48.03.95.06,1.43h-8.46Zm3.44-4.93c-1.76,0-2.86,1.79-3.19,3.33h5.96c0-1.57-1.01-3.33-2.77-3.33Z"/>
    <path class="cls-2" d="m156.8,352.76c-.98,0-1.82-.59-1.96-1.6-1.15.98-2.94,1.6-4.42,1.6-2.6,0-3.5-1.26-3.5-3.72v-10.42h2.13v10.42c0,1.2.17,1.99,1.57,1.99,1.23,0,3.25-.76,4.17-1.6v-10.81h2.13v11.62c0,.45,0,1.06.59,1.12l-.7,1.4Z"/>
    <path class="cls-2" d="m167.69,340.53s-.45-.36-1.26-.36c-.95,0-1.76.9-2.35,1.48v10.7h-2.13v-13.72h2.16v1.09c.59-.59,1.26-1.51,2.97-1.51.76,0,1.37.42,1.37.42l-.76,1.9Z"/>
    <path class="cls-2" d="m174.63,352.76c-1.4,0-2.97-.7-4-1.62l.78-1.51c.84.64,2.27,1.48,3.33,1.48,1.32,0,2.69-.59,2.69-2.1,0-1.12-.84-1.71-1.74-2.16l-2.91-1.46c-1.48-.76-2.44-1.82-2.44-3.56,0-2.58,2.41-3.64,4.65-3.64,1.57,0,3.28.62,4.23,1.9l-1.12,1.12c-.78-.78-2.04-1.37-3.16-1.37s-2.49.56-2.49,1.88c0,1.09,1.09,1.62,1.93,2.04l2.58,1.26c1.6.78,2.52,1.96,2.52,3.75,0,2.77-2.38,3.98-4.84,3.98Z"/>
    <path class="cls-2" d="m248.61,352.76c-.59-.03-1.09-.08-1.54-.53-.42-.45-.64-1.32-.64-1.93-.42,1.65-2.21,2.46-3.78,2.46-3.42,0-4.9-3.58-4.9-6.5,0-4.06,1.29-8.06,5.88-8.06.92,0,1.79.17,2.69.42v-5.71h2.13v16.86c0,.56,0,1.54.76,1.62l-.59,1.37Zm-2.3-12.35c-.73-.31-1.74-.5-2.52-.5-3.42,0-3.86,3.39-3.86,6.05,0,1.79.67,5.12,3,5.12s3.39-3.11,3.39-5.01v-5.66Z"/>
    <path class="cls-2" d="m263.25,352.76c-.98,0-1.82-.59-1.96-1.6-1.15.98-2.94,1.6-4.42,1.6-2.6,0-3.5-1.26-3.5-3.72v-10.42h2.13v10.42c0,1.2.17,1.99,1.57,1.99,1.23,0,3.25-.76,4.17-1.6v-10.81h2.13v11.62c0,.45,0,1.06.59,1.12l-.7,1.4Z"/>
    <path class="cls-2" d="m279.32,350.5h6.08v1.85h-8.2v-17.64h2.13v15.79Z"/>
    <path class="cls-2" d="m298.39,345.51c0,3.22-1.71,7.25-5.46,7.25s-5.46-4.03-5.46-7.25,1.68-7.31,5.46-7.31,5.46,4.09,5.46,7.31Zm-8.79,0c0,2.1,1.01,5.57,3.33,5.57s3.33-3.47,3.33-5.57-1.01-5.63-3.33-5.63-3.33,3.53-3.33,5.63Z"/>
    <path class="cls-2" d="m303.49,333.3c.81,0,1.54.59,1.54,1.43s-.78,1.48-1.6,1.48-1.54-.59-1.54-1.43.78-1.48,1.6-1.48Zm1.09,19.04h-2.07v-13.72h2.07v13.72Z"/>
    <path class="cls-2" d="m315.36,340.53s-.45-.36-1.26-.36c-.95,0-1.76.9-2.35,1.48v10.7h-2.13v-13.72h2.16v1.09c.59-.59,1.26-1.51,2.97-1.51.76,0,1.37.42,1.37.42l-.76,1.9Z"/>
    <path class="cls-2" d="m320.12,344.81v.53c0,1.96.78,5.74,3.33,5.74,1.06,0,3-1.12,3.89-1.74l.67,1.34c-1.2,1.04-3.19,2.07-4.79,2.07-4,0-5.29-4.37-5.29-7.64s2.16-6.92,5.82-6.92c2.77,0,4.59,2.6,4.76,5.18.03.48.03.95.06,1.43h-8.46Zm3.44-4.93c-1.76,0-2.86,1.79-3.19,3.33h5.96c0-1.57-1.01-3.33-2.77-3.33Z"/>
    <path class="cls-2" d="m335.21,352.76c-1.32,0-2.46-.78-2.46-3.14v-9.38l-1.85-.25v-1.37h1.96v-2.44h1.96v2.44h2.77v1.62h-2.72v9.27c0,1.2.45,1.54,1.09,1.54.7,0,1.62-.39,1.62-.39l.48,1.32s-1.23.78-2.86.78Z"/>
  </g>
</svg>