<?xml version="1.0" encoding="UTF-8"?>
<svg id="Calque_1" data-name="Calque 1" xmlns="http://www.w3.org/2000/svg" viewBox="0 0 461.63 461.63">
  <defs>
    <style>
      .cls-1 {
        fill: #009b44;
        stroke-width: 0px;
      }
    </style>
  </defs>
  <path class="cls-1" d="m230.82,0C103.34,0,0,103.34,0,230.82c0,70.67,31.78,133.87,81.79,176.2,70.38-36.4,99.41-102.46,103.64-111.01,2.05-4.1,3.62-9.3,4.83-14.31-4.47,5.27-9.4,11.71-13.9,18.96-12.38,19.88-41.14,23.05-62.95,22.11-21.79-.93-29.5-4.11-33.53-6.19-4.05-2.07-20.24-9.91-26.09-11.44-5.85-1.52-9.86-7.46-5.53-15.43,4.31-7.97,10.63-23.67,17.35-28.9,6.72-5.22,13.78-15.59,14.27-19.41.48-3.84,26.86-14.36,31.56-16,4.68-1.63,20.86-19.85,46.06,2.94,0,0,10.25.56,20.53,4.74-7.32-11.39-20.9-15.18-28.87-15.38-9.58-.23-23.03-20.45-30.75-28.99-7.72-8.56-2.72-22.18-8.14-32.42-5.43-10.26-6.14-26.03-4.42-28.35,1.72-2.32,5.25-17.84,7.08-26.9,1.85-9.05,7.08-12.3,7.08-12.3,1.94-2.67,21.65,2.29,22.96,4.1,1.28,1.8,2.23-4.67,29.54,10.95,9.32,5.35,16.64,12.38,22.38,19.76.51-4.68,1.16-9.24,1.97-13.3-.61-.05-1.33-.4-2.06-1.61-1.65-2.75-4.37-6.91-2.02-11.74,2.34-4.84,3.89-13.84,4.32-17.21.45-3.37,6.45-15.14,10.65-11.02,1.03,1.03,1.27,3.13,1.05,5.73.69-1.37,1.53-2.25,2.55-2.21,4.51.17,10.92,8.14,6.26,21.97-4.63,13.85-10.45,23.79-13.98,15.94-.21-.45-.37-.91-.51-1.39-1.9,7.18-3.12,14.17-3.81,20.95,8.07,12.32,12.04,24.57,13.55,30.61,1.49,5.96,2.98,15.96,4,23.68,5.23-13.91,12.29-27.43,15.06-31.78,1.38-7.5,3.03-14.82,4.58-19.74-1.8.28-4.26.33-5.07-1.23-1.3-2.53-13.12-7.34,6.32-32.25,0,0,9.55-10.18,11.43-.08,3.5-8.27,8.91-.83,9.49,2.41.6,3.29,2.69,10.71.75,19.94-1.97,9.21-11.6,14.05-16.06,12.68-.81-.25-1.33-.61-1.73-.99-1.51,4.08-3.7,10.3-5.51,17.26,3.24-.88,8.12-2.89,10.3-6.31,3.19-5.04,15.18-18.59,43.98-18.33,28.8.25,29.08,27.43,28.88,33.87-.19,6.46-8.03,22.64-6.56,27.97.65,2.3.43,5.73-.97,11.16,7.69-6.23,18.94-15.57,24.5-21.01-.53.22-1.06.38-1.6.44-5.73.7-1.03-11.6,3.45-16.79,4.46-5.18,17.93-16.2,25.42-12.78,0,0,.61,2.32-.57,5.53,4.26-2.01,7.41-1.26,8.25.08,1.55,2.52-6.87,17.65-8.35,20.89-1.48,3.25-17.33,22.8-21.76,15.36-1.87-3.12-.61-7.69,1.45-11.95-3.25,2.89-7.77,7.88-10.33,10.92-2.46,2.94-8.53,7.1-23.55,19.17-2.19,6.28-5.28,14.15-9.49,24.18-.03.05-.08.11-.1.16,8.85-2.15,16.81-3.63,20.6-3.5,8.43.29,37.71.12,41.49-.61.79-.15,1.48-.13,2.09,0,.04-.04.08-.09.14-.12-.83-.28-1.62-.57-2.32-.98-3.62-2.08-8.64-4.16-8.64-4.16,0,0,13.46-11.16,25.74-5.49,12.28,5.7,15.74,9.76,13.87,12.35,0,0-9.24,1.27-15.58.29-2.6-.42-5.04-.64-7.29-.91.09.22.21.39.27.61.13.73-.02,1.41-.31,2.05,1.13.31,2.24.68,3.28,1.14,5.04,2.21,17.77.93,18.66,5.79,0,0-14.19,18.6-34.01,3.53-6.21-4.72-8.19-7.67-7.95-9.45-5.23.26-12.16.26-21.18-.34-9.23-.65-20.33,1.42-31.49,4.65-3.36,4.98-8.22,8.83-13.73,11.8,17.92-1.15,36.28-1.18,47.88,1.91,29.12,7.77,41.94,9.4,40.45,18.11,0,0,16.06,7.87,20.58,12.66,4.5,4.79,14.23,26.02,16.22,28.65,2.01,2.63,5.54,8.93,7.47,10.15,1.94,1.23-14.1,24.68-35.16,23.48-21.08-1.19-27.35,1.99-39.15,2.61-11.82.63-36.91-2.15-63.7-33.64-17.54-20.58-30.42-31.36-40.54-37.58,4.22,4.23,8.39,9.61,10.07,15.56,3.95,13.9,25.34,25.63,35.37,47.81,10.03,22.17,3.73,59.33-14.06,73.57-17.8,14.26-65.67-28.04-71.13-47.07-3.84-13.42-10.2-23.56-13.41-29.98-12.95,18.99-27.73,33.57-27.73,33.57-22.83,20.77-43.78,35.9-62.62,47,38.41,28.56,86.02,45.48,137.58,45.48,127.47,0,230.81-103.33,230.81-230.82S358.29,0,230.82,0Z"/>
</svg>